<?xml version="1.0" encoding="iso-8859-1"?>
<!-- Generator: Adobe Illustrator 16.0.0, SVG Export Plug-In . SVG Version: 6.00 Build 0)  -->
<!DOCTYPE svg PUBLIC "-//W3C//DTD SVG 1.1//EN" "http://www.w3.org/Graphics/SVG/1.1/DTD/svg11.dtd">
<svg version="1.1" id="Layer_1" xmlns="http://www.w3.org/2000/svg" xmlns:xlink="http://www.w3.org/1999/xlink" x="0px" y="0px"
	 width="32px" height="27.808px" viewBox="0 0 32 27.808" style="enable-background:new 0 0 32 27.808;" xml:space="preserve">
<path d="M31.011,4.629c-1.432-2.382-4.228-3.748-7.674-3.748c-2.464,0-4.67,1.081-6.478,2.45c-1.613-1.785-4.728-3.415-8.055-3.328
	C6.656,0.059,3.608,0.855,1.289,4.334C0.094,6.126-0.272,8.019,0.2,9.961c0.893,3.674,4.63,6.404,6.201,7.411v9.093
	c0,0.742,0.602,1.343,1.343,1.343h17.757c0.742,0,1.343-0.601,1.343-1.343v-9.783c1.62-0.813,2.983-1.933,3.797-3.464
	C32.316,10.069,32.447,7.019,31.011,4.629z M28.27,11.958c-2.225,4.185-11.72,4.354-15.192,4.067
	c-0.736-0.066-1.388,0.488-1.449,1.227c-0.062,0.739,0.487,1.389,1.226,1.45c0.149,0.013,1.162,0.092,2.645,0.092
	c2.26,0,5.611-0.187,8.659-1.076v7.405H9.087v-8.506c0-0.487-0.265-0.937-0.691-1.174c-0.047-0.026-4.756-2.685-5.587-6.121
	C2.519,8.125,2.753,6.98,3.523,5.825c1.35-2.024,3.149-3.079,5.35-3.136c2.397-0.056,4.815,1.137,5.976,2.418
	c-1.831,1.853-2.937,3.646-3.03,3.801c-0.384,0.633-0.182,1.457,0.451,1.843c0.633,0.385,1.459,0.185,1.845-0.449
	c0.041-0.067,4.165-6.733,9.223-6.733c2.48,0,4.438,0.892,5.372,2.445C29.64,7.562,29.484,9.673,28.27,11.958z"/>
<g>
</g>
<g>
</g>
<g>
</g>
<g>
</g>
<g>
</g>
<g>
</g>
<g>
</g>
<g>
</g>
<g>
</g>
<g>
</g>
<g>
</g>
<g>
</g>
<g>
</g>
<g>
</g>
<g>
</g>
</svg>
